<svg width="169" height="33" viewBox="0 0 169 33" fill="none" xmlns="http://www.w3.org/2000/svg">
<g clip-path="url(#clip0_25_2059)">
<path d="M18.8416 9.56211V6.67095C19.1217 6.6511 19.4051 6.63567 19.694 6.62685C27.6 6.37875 32.7857 13.4203 32.7857 13.4203C32.7857 13.4203 27.1843 21.2006 21.1781 21.2006C20.3136 21.2006 19.5385 21.0605 18.8416 20.8268V12.0618C21.9191 12.4334 22.5377 13.793 24.3879 16.8771L28.503 13.407C28.503 13.407 25.4994 9.46728 20.436 9.46728C19.8847 9.46728 19.3577 9.50587 18.8416 9.56211ZM18.8416 0.0131531V4.33114C19.125 4.30798 19.4095 4.29034 19.694 4.28042C30.6885 3.90992 37.8502 13.2957 37.8502 13.2957C37.8502 13.2957 29.6233 23.3 21.0524 23.3C20.2673 23.3 19.5319 23.2272 18.8416 23.1049V25.7744C19.4315 25.8493 20.0446 25.8934 20.683 25.8934C28.6585 25.8934 34.4265 21.8203 40.0125 16.9995C40.9376 17.7416 44.7285 19.5444 45.5092 20.335C40.1977 24.7809 27.8216 28.3645 20.8054 28.3645C20.1295 28.3645 19.4789 28.3237 18.8416 28.2619V32.0132H49.1557V0.0131531H18.8416ZM18.8416 20.8268V23.1049C11.4638 21.7905 9.41617 14.1216 9.41617 14.1216C9.41617 14.1216 12.959 10.1972 18.8416 9.56211V12.0618C18.8361 12.0618 18.8339 12.0607 18.8295 12.0607C15.7432 11.6902 13.3306 14.5736 13.3306 14.5736C13.3306 14.5736 14.6824 19.4297 18.8416 20.8268ZM5.73883 13.7897C5.73883 13.7897 10.1108 7.33806 18.8416 6.67095V4.33114C9.17137 5.1063 0.797852 13.2957 0.797852 13.2957C0.797852 13.2957 5.54035 27.0071 18.8416 28.2619V25.7744C9.08095 24.546 5.73883 13.7897 5.73883 13.7897Z" fill="#323232"/>
<path d="M166.076 24.5127V24.0503H166.373C166.54 24.0503 166.763 24.0633 166.763 24.2602C166.763 24.4737 166.633 24.5127 166.447 24.5127H166.076ZM166.076 24.8376H166.28L166.725 25.6453H167.227L166.725 24.8042C166.985 24.7856 167.208 24.6594 167.208 24.3047C167.208 23.8647 166.911 23.7235 166.391 23.7235H165.649V25.6453H166.076V24.8376ZM168.229 24.6872C168.229 23.5583 167.357 22.9028 166.373 22.9028C165.389 22.9028 164.516 23.5583 164.516 24.6872C164.516 25.8162 165.389 26.4735 166.373 26.4735C167.357 26.4735 168.229 25.8162 168.229 24.6872ZM167.71 24.6872C167.71 25.5098 167.097 26.0613 166.373 26.0613V26.0557C165.649 26.0613 165.054 25.5098 165.054 24.6872C165.054 23.8647 165.649 23.315 166.373 23.315C167.097 23.315 167.71 23.8647 167.71 24.6872Z" fill="#323232"/>
<path d="M100.17 5.58071L100.172 25.8422H105.895V5.58071H100.17ZM55.1558 5.55286V25.8422H60.9286V10.4363L65.4016 10.4381C66.8833 10.4381 67.938 10.8076 68.6529 11.5689C69.5571 12.5326 69.9266 14.0886 69.9266 16.9332V25.8422H75.5193V14.6326C75.5193 6.63165 70.4205 5.55286 65.4313 5.55286H55.1558ZM109.384 5.58256V25.8422H118.664C123.609 25.8422 125.222 25.0196 126.97 23.1758C128.202 21.8816 128.999 19.0407 128.999 15.9342C128.999 13.0878 128.325 10.5458 127.148 8.96379C125.027 6.13404 121.973 5.58256 117.414 5.58256H109.384ZM115.06 9.99247H117.52C121.089 9.99247 123.397 11.5967 123.397 15.7541C123.397 19.9152 121.089 21.5177 117.52 21.5177H115.06V9.99247ZM91.9205 5.58256L87.1448 21.6383L82.5678 5.58256H76.392L82.9261 25.8422H91.174L97.7601 5.58256H91.9205ZM131.662 25.8422H137.384V5.58256H131.662V25.8422ZM147.703 5.58813L139.713 25.8347H145.356L146.62 22.2567H156.067L157.274 25.8347H163.402L155.343 5.58813H147.703ZM151.418 9.28318L154.879 18.7677H147.842L151.418 9.28318Z" fill="#323232"/>
</g>
<defs>
<clipPath id="clip0_25_2059">
<rect width="167.432" height="32" fill="white" transform="translate(0.797852 0.0131531)"/>
</clipPath>
</defs>
</svg>
