<svg width="110" height="32" viewBox="0 0 110 32" fill="none" xmlns="http://www.w3.org/2000/svg">
<g clip-path="url(#clip0_25_2072)">
<path d="M13.1236 0.386366C12.0597 0.391239 11.0439 0.481984 10.1501 0.640264C7.51692 1.10559 7.03883 2.07917 7.03883 3.87502V6.24667H13.2614V7.03714H4.70338C2.895 7.03714 1.31127 8.12422 0.816007 10.1921C0.244621 12.5623 0.219324 14.0414 0.816007 16.5163C1.25836 18.3586 2.31479 19.6712 4.12318 19.6712H6.26274V16.8282C6.26274 14.7743 8.0398 12.9627 10.1501 12.9627H16.3655C18.0957 12.9627 19.4768 11.5381 19.4768 9.80055V3.87479C19.4768 2.18848 18.0541 0.921547 16.3655 0.640032C15.2963 0.462257 14.1874 0.38126 13.1236 0.386366ZM9.75836 2.29362C10.4012 2.29362 10.926 2.82717 10.926 3.48304C10.926 4.13658 10.401 4.66526 9.75836 4.66526C9.11341 4.66526 8.59076 4.13681 8.59076 3.48304C8.59076 2.82717 9.11341 2.29362 9.75836 2.29362Z" fill="#323232"/>
<path d="M20.2529 7.03693V9.8001C20.2529 11.9424 18.4366 13.7455 16.3655 13.7455H10.1501C8.44756 13.7455 7.03882 15.2025 7.03882 16.9076V22.8329C7.03882 24.5194 8.50511 25.5114 10.1501 25.995C12.1198 26.5743 14.0087 26.679 16.3655 25.995C17.9321 25.5415 19.4768 24.6285 19.4768 22.8329V20.4615H13.2614V19.671H22.5881C24.3967 19.671 25.0704 18.4094 25.6994 16.5161C26.3492 14.5671 26.3216 12.6923 25.6994 10.1919C25.2524 8.39159 24.3988 7.03693 22.5881 7.03693H20.2529ZM16.757 22.0424C17.402 22.0424 17.9246 22.5709 17.9246 23.2247C17.9246 23.8805 17.402 24.4141 16.757 24.4141C16.1142 24.4141 15.5894 23.8805 15.5894 23.2247C15.5894 22.5711 16.1144 22.0424 16.757 22.0424Z" fill="#323232"/>
<path opacity="0.444" d="M21.671 30.0233C21.671 30.9163 17.9375 31.6402 13.3319 31.6402C8.72643 31.6402 4.99292 30.9163 4.99292 30.0233C4.99292 29.1302 8.72643 28.4061 13.3319 28.4061C17.9375 28.4061 21.671 29.1302 21.671 30.0233Z" fill="url(#paint0_radial_25_2072)"/>
<path d="M40.5579 14.0017C40.5579 10.6221 39.5943 8.88707 37.6669 8.79215C36.8998 8.75595 36.1514 8.87802 35.4229 9.16093C34.8415 9.36888 34.4502 9.57497 34.2444 9.78314V17.8499C35.4772 18.6236 36.5719 18.9833 37.5267 18.9267C39.5465 18.7928 40.5579 17.1529 40.5579 14.0017ZM42.9354 14.1419C42.9354 15.8588 42.5327 17.284 41.7227 18.4173C40.8202 19.7 39.5693 20.3605 37.97 20.3967C36.7643 20.435 35.5222 20.0574 34.2441 19.2656V26.5973L32.1765 25.8597V9.58611C32.5158 9.16998 32.9526 8.81258 33.4817 8.50924C34.7125 7.79211 36.2075 7.42356 37.9677 7.40546L37.9969 7.4347C39.6055 7.41451 40.8448 8.07502 41.7158 9.41413C42.5281 10.6425 42.9354 12.217 42.9354 14.1419ZM55.5716 18.9536C55.5716 21.2566 55.3409 22.8512 54.8795 23.738C54.4158 24.6246 53.5334 25.3326 52.2305 25.8599C51.1741 26.2761 50.0315 26.5023 48.8057 26.5409L48.4638 25.238C49.7103 25.0685 50.5881 24.8987 51.097 24.729C52.0991 24.3897 52.7868 23.8696 53.1646 23.1727C53.4677 22.605 53.617 21.5214 53.617 19.9177V19.3793C52.2031 20.0219 50.7215 20.3408 49.1721 20.3408C48.154 20.3408 47.2561 20.0219 46.4823 19.3793C45.6136 18.6802 45.1794 17.7937 45.1794 16.7192V8.11354L47.247 7.40546V16.067C47.247 16.9921 47.5455 17.7048 48.1426 18.2047C48.7398 18.7046 49.5135 18.9446 50.4613 18.9263C51.4092 18.9058 52.4248 18.5394 53.5037 17.8222V7.71738H55.5713L55.5716 18.9536ZM63.6427 20.2837C63.4162 20.3028 63.189 20.3126 62.9618 20.3129C61.7923 20.3129 60.8804 20.0349 60.2292 19.4761C59.5798 18.9174 59.2542 18.1462 59.2542 17.162V9.0182H57.8381V7.71761H59.2542V4.2633L61.3195 3.52807V7.71761H63.6427V9.0182H61.3195V17.1053C61.3195 17.8814 61.5275 18.431 61.9436 18.7524C62.301 19.017 62.8689 19.1685 63.6424 19.2071V20.2837H63.6427ZM76.1614 20.114H74.0938V12.1332C74.0938 11.3212 73.904 10.6221 73.5261 10.0387C73.0896 9.37793 72.4834 9.04768 71.705 9.04768C70.7572 9.04768 69.5719 9.54758 68.149 10.5474V20.114H66.0816V1.03759L68.149 0.386139V9.07483C69.47 8.11331 70.9134 7.63151 72.4811 7.63151C73.576 7.63151 74.4626 8.00029 75.1414 8.73553C75.8223 9.47053 76.1617 10.3868 76.1617 11.4818L76.1614 20.114ZM87.1507 13.6761C87.1507 12.3776 86.9043 11.3054 86.4132 10.4571C85.8295 9.42342 84.9225 8.87802 83.6964 8.82163C81.4297 8.95275 80.2985 10.5769 80.2985 13.6898C80.2985 15.1171 80.5339 16.3093 81.0089 17.2662C81.6151 18.4855 82.5247 19.0873 83.7373 19.0669C86.0128 19.0486 87.1507 17.2525 87.1507 13.6761ZM89.4152 13.6896C89.4152 15.5379 88.9424 17.0761 87.999 18.3043C86.9604 19.6798 85.5266 20.3696 83.6964 20.3696C81.8822 20.3696 80.4684 19.6796 79.4482 18.3043C78.5229 17.0761 78.0613 15.5379 78.0613 13.6896C78.0613 11.9524 78.5612 10.491 79.5612 9.30111C80.6176 8.03881 82.0064 7.40546 83.7236 7.40546C85.4403 7.40546 86.8384 8.03881 87.9152 9.30111C88.9153 10.491 89.4152 11.9524 89.4152 13.6896ZM101.269 20.114H99.2009V11.6809C99.2009 10.7558 98.9229 10.034 98.3664 9.5137C97.8098 8.99569 97.0676 8.74458 96.1425 8.76477C95.1611 8.78287 94.2265 9.10407 93.3399 9.72628V20.114H91.2723V9.47076C92.4622 8.60463 93.5571 8.03882 94.557 7.77424C95.5001 7.52777 96.3326 7.40546 97.0498 7.40546C97.5404 7.40546 98.0022 7.45281 98.4364 7.54796C99.2485 7.73571 99.9092 8.08407 100.418 8.59535C100.986 9.16093 101.269 9.83931 101.269 10.6335V20.114Z" fill="#323232"/>
<path d="M105.295 5.8742H105.657V3.60072H106.516V3.32965H104.436V3.60072H105.294L105.295 5.8742ZM106.837 5.8742H107.147V3.79776L107.819 5.87397H108.164L108.864 3.80472V5.8742H109.202V3.32988H108.755L107.99 5.50983L107.337 3.32988H106.837V5.8742Z" fill="#323232"/>
</g>
<defs>
<radialGradient id="paint0_radial_25_2072" cx="0" cy="0" r="1" gradientUnits="userSpaceOnUse" gradientTransform="translate(13.3292 29.9861) rotate(-90) scale(1.61668 7.10759)">
<stop stop-color="#B8B8B8" stop-opacity="0.498"/>
<stop offset="1" stop-color="#7F7F7F" stop-opacity="0"/>
</radialGradient>
<clipPath id="clip0_25_2072">
<rect width="108.824" height="31.254" fill="white" transform="translate(0.37793 0.386139)"/>
</clipPath>
</defs>
</svg>
