<svg width="145" height="34" viewBox="0 0 145 34" fill="none" xmlns="http://www.w3.org/2000/svg">
<path d="M13.9893 18.3166L18.5751 15.6555L23.0932 18.3166L18.5751 20.9213L13.9893 18.3731V18.3166ZM0.229492 10.4461L18.5842 0.0263062L32.2288 7.78384L27.7107 15.6543L18.5955 10.445L4.83793 18.259L0.229492 10.4461Z" fill="#D9D9D9"/>
<path d="M13.9893 28.7342V23.5248L18.5074 20.9202L23.0933 18.3155V23.5248L18.5752 26.1295V31.3388L13.9893 34V28.7342ZM13.9893 18.3166L9.40348 15.7119L4.81763 18.2601V13.0497L18.5752 5.23566V15.6543L13.9893 18.3166ZM27.6339 13.0508V10.4461L32.2198 7.78498L32.2762 12.9943L27.6904 15.6555L27.6339 13.0508Z" fill="#818181"/>
<path d="M9.40119 31.2259V15.7119L13.9193 13.1638L13.9757 18.3166L18.5616 20.8648V26.1306L13.9757 23.6954V34L9.40119 31.2259ZM2.49531 16.9013L0.229492 15.5425V10.4484L4.81534 13.0531V18.2624L2.49531 16.9013ZM18.5751 10.4461V5.23679L27.6339 10.4461L27.6904 15.6555L18.5751 10.4461Z" fill="#323232"/>
<path d="M45.7354 11.2694V25.69H43.2009V11.2694H38.2761V8.78247H50.6561V11.268L45.7354 11.2694ZM59.0473 16.507C59.2024 17.1342 59.2715 17.7795 59.2527 18.4253L51.0751 20.8496C51.1391 21.4618 51.1214 21.2128 51.3132 21.6481C51.505 22.0835 51.7485 22.4399 52.037 22.7365C52.3254 23.0331 52.6492 23.2262 52.9893 23.3623C53.3294 23.4983 53.7198 23.5691 54.0994 23.5664C54.6436 23.5664 55.117 23.4779 55.5591 23.3011C56.0219 23.1123 56.4563 22.8605 56.8502 22.5528L58.3222 24.1445C57.7778 24.67 57.139 25.0877 56.4393 25.3757C55.7455 25.6655 54.9184 25.8111 53.9538 25.8111C53.2276 25.814 52.5086 25.6662 51.8424 25.3771C51.1622 25.0873 50.5908 24.6615 50.0929 24.0983C49.595 23.5351 49.2004 22.844 48.9093 22.0223C48.6182 21.2006 48.474 20.2537 48.474 19.2225C48.474 18.145 48.61 17.1818 48.8848 16.3751C49.1596 15.5683 49.5378 14.8786 50.0194 14.3113C50.4972 13.7599 51.096 13.3265 51.7689 13.0447C52.4842 12.7491 53.252 12.6014 54.0259 12.6107C54.9265 12.6107 55.7129 12.7794 56.3795 13.1182C57.0461 13.4569 57.6039 13.9154 58.0447 14.4786C58.5031 15.0885 58.839 15.7815 59.0337 16.5193L59.0473 16.507ZM56.6706 17.0784C56.638 16.6431 56.3387 16.1261 56.0911 15.7819C55.8577 15.4745 55.5449 15.2365 55.1864 15.0935C54.8163 14.9466 54.313 14.8854 53.8708 14.9031C53.0546 14.9398 52.1023 15.2269 51.6506 15.8554C51.1989 16.4839 51.0561 17.5736 51.0738 18.7354L56.6706 17.0784ZM68.2303 25.5322V18.3627C68.2303 17.0757 67.999 16.186 67.5419 15.6595C67.0848 15.133 66.444 14.8868 65.6373 14.8868C64.8006 14.8868 64.1571 15.1684 63.7054 15.7302C63.2538 16.2921 63.0293 17.0907 63.0293 18.1192V25.5281H60.5302V12.8624H63.0157V14.0691C63.3381 13.6025 63.7843 13.2529 64.3557 12.9835C64.9271 12.7141 65.542 12.5971 66.2018 12.5971C67.682 12.5971 68.8044 13.0733 69.5689 14.0215C70.3335 14.9697 70.7158 16.3887 70.7158 18.2688V25.5335L68.2303 25.5322ZM80.9259 22.2018C80.9259 22.9093 80.7925 23.5011 80.5273 23.9758C80.2747 24.4371 79.9143 24.8306 79.477 25.1227C79.0417 25.4125 78.5247 25.622 77.9805 25.7485C77.39 25.8793 76.7868 25.9441 76.182 25.9417C75.3113 25.9417 74.4488 25.7893 73.5877 25.4832C72.7838 25.2068 72.0237 24.8165 71.3307 24.3241L72.4517 22.4549C73.0172 22.8581 73.6393 23.1754 74.2978 23.3963C74.9331 23.6058 75.5494 23.7092 76.1439 23.7092C77.688 23.7092 78.4607 23.2426 78.4607 22.3079C78.4607 21.825 78.1996 21.4373 77.6771 21.1516C77.1547 20.8659 76.4337 20.5394 75.5168 20.1993C74.9235 19.9802 74.347 19.7183 73.7917 19.4157C73.3183 19.149 72.9306 18.8647 72.6326 18.5586C72.3453 18.2689 72.1268 17.9183 71.9932 17.5328C71.864 17.1546 71.8 16.7165 71.8 16.2173C71.8 15.654 71.9048 15.1561 72.1129 14.7208C72.3178 14.2918 72.6241 13.9191 73.0054 13.6352C73.3918 13.3454 73.8489 13.1277 74.3658 12.9821C74.8828 12.8366 75.476 12.7645 76.1031 12.7645C76.9194 12.7645 77.6839 12.8937 78.4322 13.1508C79.1804 13.408 79.8362 13.7467 80.3994 14.1644L79.3314 16.0608C78.8172 15.6908 78.2934 15.4173 77.7628 15.2405C77.2323 15.0636 76.6745 14.9752 76.0487 14.9752C75.4229 14.9752 74.9944 15.084 74.7209 15.3017C74.5915 15.3981 74.4867 15.5238 74.4153 15.6685C74.3439 15.8133 74.3078 15.9729 74.3101 16.1343C74.3086 16.2884 74.3416 16.4408 74.4066 16.5805C74.4706 16.7165 74.5917 16.858 74.7685 16.9886C74.9897 17.1614 75.2281 17.311 75.48 17.4349C75.862 17.6252 76.2524 17.7982 76.65 17.9532L78.5084 18.7382C78.9916 18.9571 79.4425 19.2414 79.8484 19.583C80.199 19.8816 80.4756 20.2574 80.6565 20.6809C80.8334 21.0985 80.9218 21.606 80.9218 22.2018H80.9259ZM92.4869 19.281C92.4869 20.3285 92.3427 21.2645 92.0515 22.093C91.7604 22.9215 91.3713 23.6221 90.8448 24.1922C90.344 24.7534 89.7264 25.1982 89.0354 25.4955C88.3552 25.7948 87.5879 25.9417 86.7662 25.9417C85.95 25.9417 85.2221 25.7852 84.546 25.471C83.8695 25.1556 83.2687 24.6986 82.7842 24.1309C82.2849 23.5527 81.8959 22.8603 81.6142 22.0549C81.3326 21.2495 81.2061 20.3489 81.2061 19.3517C81.2061 18.3219 81.3503 17.3968 81.6415 16.5764C81.9326 15.7561 82.3298 15.0595 82.8359 14.4881C83.3249 13.9239 83.9357 13.4783 84.6222 13.1848C85.3201 12.8883 86.0506 12.7386 86.8533 12.7386C87.6267 12.7322 88.3924 12.8927 89.098 13.2093C89.7826 13.5177 90.3953 13.9658 90.8965 14.5249C91.404 15.0881 91.7971 15.7765 92.0801 16.5887C92.3631 17.4008 92.4882 18.2987 92.4882 19.2796L92.4869 19.281ZM89.9769 19.3531C89.9769 18.0498 89.7048 17.0158 89.1198 16.2513C88.5348 15.4867 87.7566 15.1044 86.7431 15.1044C86.3042 15.0892 85.8688 15.1865 85.4782 15.3873C85.0876 15.5881 84.755 15.8855 84.512 16.2513C83.9746 17.0172 83.7039 18.0253 83.7039 19.281C83.7039 20.6822 83.9937 21.7461 84.5746 22.478C84.8416 22.8304 85.1889 23.1138 85.5877 23.3048C85.9864 23.4957 86.425 23.5887 86.8669 23.5759C87.3335 23.5759 87.7593 23.463 88.1457 23.2385C88.5354 23.0099 88.8724 22.7016 89.1348 22.3338C89.4214 21.9277 89.6337 21.474 89.7619 20.9938C89.9061 20.4795 89.9796 19.9326 89.9796 19.3531H89.9769ZM100.5 15.6364C100.231 15.4937 99.948 15.3805 99.655 15.299C99.3652 15.2173 99.0115 15.1629 98.5939 15.1629C97.8048 15.1629 97.1926 15.435 96.76 15.9833C96.3274 16.5315 96.107 17.3437 96.107 18.4212V25.6614H93.6215V12.9903H96.107V14.197C96.4184 13.7591 96.8273 13.3996 97.3015 13.1468C97.8228 12.8616 98.4092 12.7163 99.0034 12.725C99.5176 12.725 99.9557 12.7699 100.269 12.8583C100.582 12.9405 100.88 13.0753 101.149 13.257L100.496 15.6241L100.5 15.6364Z" fill="#323232"/>
<path d="M104.673 11.2694V15.6867H109.525V18.1722H104.673V25.6778H102.139V8.78249H113.022V11.268L104.673 11.2694ZM113.435 25.6764V9.38652L115.92 8.08322V25.6791L113.435 25.6764ZM128.617 19.2823C128.617 20.3299 128.472 21.2659 128.182 22.0944C127.892 22.9229 127.488 23.6235 126.975 24.1935C126.474 24.7549 125.856 25.1998 125.164 25.4968C124.471 25.7961 123.717 25.9431 122.895 25.9431C122.092 25.9431 121.351 25.7866 120.675 25.4723C119.999 25.1581 119.412 24.7105 118.913 24.1323C118.414 23.5541 118.025 22.8617 117.743 22.0563C117.462 21.2509 117.335 20.3503 117.335 19.3531C117.335 18.3232 117.479 17.3981 117.77 16.5778C118.061 15.7575 118.459 15.0609 118.965 14.4895C119.471 13.9181 120.053 13.4828 120.751 13.1862C121.449 12.8896 122.18 12.74 122.982 12.74C123.785 12.74 124.533 12.8965 125.227 13.2107C125.912 13.5191 126.524 13.9672 127.025 14.5263C127.533 15.0895 127.926 15.7779 128.209 16.59C128.492 17.4022 128.617 18.3015 128.617 19.2823ZM126.107 19.3545C126.107 18.0512 125.835 17.0172 125.25 16.2527C124.665 15.4881 123.887 15.1058 122.873 15.1058C121.924 15.1058 121.18 15.4867 120.642 16.2527C120.105 17.0186 119.834 18.0267 119.834 19.2823C119.834 20.6836 120.124 21.7475 120.705 22.4794C120.972 22.8317 121.319 23.1152 121.718 23.3062C122.117 23.4971 122.555 23.5901 122.997 23.5773C123.446 23.5821 123.888 23.4656 124.276 23.2399C124.666 23.0112 125.003 22.703 125.265 22.3352C125.537 21.957 125.748 21.5107 125.891 20.9951C126.034 20.4795 126.107 19.934 126.107 19.3545ZM140.877 25.6778H138.755L137.041 19.2837L136.667 17.8008L136.389 16.5819L136.112 17.8131L135.738 19.3096L134.048 25.6819H131.926L128.45 13.0107H130.899L132.395 19.1654L132.757 20.6863L133.022 21.942L133.335 20.6863L133.721 19.1654L135.411 13.0107H137.415L139.129 19.1898L139.503 20.6999L139.805 21.9434L140.083 20.6782L140.433 19.1681L141.929 13.0134H144.378L140.877 25.6778Z" fill="#323232"/>
</svg>
