<svg width="400" height="70" viewBox="0 0 400 70" fill="none" xmlns="http://www.w3.org/2000/svg">
<path d="M10 60C25.8435 45.9834 41.1642 30.4429 57.2906 17.1093C58.1365 16.4099 66.5719 8.59698 68.325 10.2218C70.3593 12.1072 69.5633 33.2751 69.7888 36.4414C70.0091 39.5346 69.5783 53.3867 72.6037 55.0691C77.6927 57.8991 86.9012 39.3813 89.4932 35.8936C94.4232 29.2596 99.8916 22.7739 106.157 18.6747C109.761 16.3174 108.692 25.3942 108.972 28.3016C110.321 42.2806 110.803 56.5178 122.878 51.0775C135.138 45.5541 146.349 36.1388 157.501 27.3624C162.967 23.0617 164.567 20.0448 165.271 28.8495C165.895 36.659 166.695 45.1307 169.099 52.3298C171.759 60.2953 176.585 55.3685 180.584 52.1732C188.456 45.8835 196.184 39.0377 204.567 34.0934C210.191 30.776 208.234 37.5197 209.746 43.0942C215.266 63.4369 226.811 47.4991 235.643 39.9635C243.057 33.6383 252.114 24.3837 261.09 22.9011C264.871 22.2767 267.341 35.0206 268.859 38.3981C270.691 42.4732 272.264 46.5154 276.066 45.1291C288.83 40.4748 300.568 30.611 312.772 23.8403C317.784 21.0597 320.851 18.7416 323.018 26.3449C324.187 30.4451 326.171 41.4443 329.943 42.7028C340.588 46.2547 349.749 23.8586 359.612 22.6663C363.119 22.2424 361.185 50.4554 369.746 41.6854C375.098 36.2032 379.298 32.0892 385.397 29.006C387.538 27.9236 388.466 27.7479 389 24.7795" stroke="#4EE062" stroke-width="20" stroke-linecap="round"/>
</svg>
