<svg width="20" height="20" viewBox="0 0 20 20" fill="none" xmlns="http://www.w3.org/2000/svg">
<path d="M17.4999 11.6666V15C17.4999 15.8495 16.5112 16.6001 14.9999 17.0519C14.0551 17.3343 12.906 17.5 11.6666 17.5C10.4272 17.5 9.27811 17.3343 8.33325 17.0519C6.82202 16.6001 5.83325 15.8495 5.83325 15V14.1666M17.4999 11.6666C17.4999 12.5162 16.5112 13.2668 14.9999 13.7185C14.0551 14.001 12.906 14.1666 11.6666 14.1666C11.0874 14.1666 10.528 14.1305 9.99992 14.0631M17.4999 11.6666C17.4999 10.8612 16.6112 10.1447 15.231 9.6875" stroke="#818181" stroke-width="2" stroke-linecap="round" stroke-linejoin="round"/>
<path d="M2.5 8.33332V11.6666C2.5 12.5162 3.48876 13.2668 5 13.7185C5.94486 14.001 7.09396 14.1666 8.33333 14.1666C9.57271 14.1666 10.7218 14.001 11.6667 13.7185C13.1779 13.2668 14.1667 12.5162 14.1667 11.6666V10.3852M2.5 8.33332C2.5 9.18287 3.48876 9.93345 5 10.3852C5.94486 10.6677 7.09396 10.8333 8.33333 10.8333C8.61627 10.8333 8.8945 10.8247 9.16667 10.808M2.5 8.33332C2.5 7.65214 3.13568 7.03459 4.16667 6.58368" stroke="#818181" stroke-width="2" stroke-linecap="round" stroke-linejoin="round"/>
<path d="M15.8334 5C15.8334 3.61929 13.2217 2.5 10.0001 2.5C6.77842 2.5 4.16675 3.61929 4.16675 5M15.8334 5V8.33333C15.8334 9.18289 14.8447 9.93346 13.3334 10.3852C12.3886 10.6677 11.2395 10.8333 10.0001 10.8333C8.76071 10.8333 7.61161 10.6677 6.66675 10.3852C5.15551 9.93346 4.16675 9.18289 4.16675 8.33333V5M15.8334 5C15.8334 5.84955 14.8447 6.60013 13.3334 7.0519C12.3886 7.33435 11.2395 7.5 10.0001 7.5C8.76071 7.5 7.61161 7.33435 6.66675 7.0519C5.15551 6.60013 4.16675 5.84955 4.16675 5" stroke="#818181" stroke-width="2" stroke-linecap="round" stroke-linejoin="round"/>
</svg>
