<svg width="27" height="20" viewBox="0 0 27 20" fill="none" xmlns="http://www.w3.org/2000/svg">
<path d="M22.3634 1.65789C20.691 0.890525 18.8976 0.325164 17.0225 0.00135832C16.9884 -0.00489103 16.9543 0.0107264 16.9367 0.0419621C16.706 0.452184 16.4506 0.987351 16.2717 1.40799C14.2549 1.10606 12.2484 1.10606 10.273 1.40799C10.094 0.978001 9.82928 0.452184 9.5976 0.0419621C9.58001 0.0117686 9.5459 -0.00384885 9.51175 0.00135832C7.63768 0.324129 5.84429 0.88949 4.17086 1.65789C4.15638 1.66414 4.14396 1.67456 4.13572 1.68808C0.734035 6.77013 -0.197829 11.7273 0.259312 16.6229C0.261381 16.6469 0.274826 16.6698 0.293443 16.6843C2.53778 18.3325 4.7118 19.3331 6.84544 19.9964C6.87959 20.0068 6.91577 19.9943 6.9375 19.9662C7.44222 19.2769 7.89213 18.5502 8.27788 17.7859C8.30064 17.7412 8.27891 17.688 8.23239 17.6703C7.51876 17.3996 6.83924 17.0696 6.18559 16.6948C6.13388 16.6646 6.12974 16.5906 6.17731 16.5552C6.31486 16.4521 6.45245 16.3449 6.58379 16.2366C6.60756 16.2168 6.64067 16.2127 6.66861 16.2252C10.9628 18.1857 15.6118 18.1857 19.8553 16.2252C19.8833 16.2116 19.9164 16.2158 19.9412 16.2356C20.0726 16.3439 20.2101 16.4521 20.3487 16.5552C20.3963 16.5906 20.3932 16.6646 20.3415 16.6948C19.6878 17.0769 19.0083 17.3996 18.2936 17.6693C18.2471 17.687 18.2264 17.7412 18.2492 17.7859C18.6432 18.5491 19.0931 19.2759 19.5885 19.9651C19.6092 19.9943 19.6464 20.0068 19.6806 19.9964C21.8246 19.3331 23.9986 18.3325 26.2429 16.6843C26.2626 16.6698 26.275 16.6479 26.277 16.624C26.8241 10.964 25.3607 6.04755 22.3975 1.68912C22.3903 1.67456 22.3779 1.66414 22.3634 1.65789ZM8.91915 13.642C7.6263 13.642 6.56103 12.455 6.56103 10.9974C6.56103 9.53969 7.60564 8.35275 8.91915 8.35275C10.243 8.35275 11.2979 9.55011 11.2772 10.9974C11.2772 12.455 10.2326 13.642 8.91915 13.642ZM17.6379 13.642C16.3451 13.642 15.2798 12.455 15.2798 10.9974C15.2798 9.53969 16.3244 8.35275 17.6379 8.35275C18.9618 8.35275 20.0167 9.55011 19.996 10.9974C19.996 12.455 18.9618 13.642 17.6379 13.642Z" fill="black"/>
</svg>
