<svg width="24" height="24" viewBox="0 0 24 24" fill="none" xmlns="http://www.w3.org/2000/svg">
<circle cx="12" cy="12" r="9" fill="#D9D9D9"/>
<path d="M10 3H8C6.89543 3 6 3.89543 6 5L6 19C6 20.1046 6.89543 21 8 21H16C17.1046 21 18 20.1046 18 19V13M10 3L11 3V4M10 3V4M11 4V5C10.2 5 10 4.33333 10 4M11 4H10M10 18H14" stroke="black" stroke-width="2" stroke-linecap="round" stroke-linejoin="round"/>
<path d="M15 9.00098L15 8.99998" stroke="black" stroke-width="2" stroke-linecap="round" stroke-linejoin="round"/>
<path d="M18 9C18 7.34315 16.6569 6 15 6" stroke="black" stroke-width="2" stroke-linecap="round" stroke-linejoin="round"/>
<path d="M21 9C21 5.68629 18.3137 3 15 3" stroke="black" stroke-width="2" stroke-linecap="round" stroke-linejoin="round"/>
</svg>
