<svg width="24" height="24" viewBox="0 0 24 24" fill="none" xmlns="http://www.w3.org/2000/svg">
<circle cx="12" cy="12" r="9" fill="#D9D9D9"/>
<circle cx="18" cy="4" r="2" stroke="black" stroke-width="2" stroke-linecap="round" stroke-linejoin="round"/>
<circle cx="5" cy="18" r="2" stroke="black" stroke-width="2" stroke-linecap="round" stroke-linejoin="round"/>
<circle cx="4.5" cy="5.5" r="1.5" stroke="black" stroke-width="2" stroke-linecap="round" stroke-linejoin="round"/>
<circle cx="19.5" cy="19.5" r="2.5" stroke="black" stroke-width="2" stroke-linecap="round" stroke-linejoin="round"/>
<path d="M14.7431 9.81319C14.1357 9.30553 13.3535 9 12.5 9C11.3977 9 10.4144 9.50956 9.77289 10.306M14.7431 9.81319C15.5113 10.4552 16 11.4205 16 12.5C16 13.2436 15.7681 13.9331 15.3727 14.5M14.7431 9.81319L17 6M6 7L9.77289 10.306M9.77289 10.306C9.2894 10.9062 9 11.6693 9 12.5C9 13.4793 9.40223 14.3647 10.0505 15M6.5 16.5L10.0505 15M10.0505 15C10.6818 15.6186 11.5463 16 12.5 16C13.6894 16 14.7402 15.4067 15.3727 14.5M17.5 17.5L15.3727 14.5" stroke="black" stroke-width="2" stroke-linecap="round" stroke-linejoin="round"/>
</svg>
