<svg width="20" height="20" viewBox="0 0 20 20" fill="none" xmlns="http://www.w3.org/2000/svg">
<path d="M5.83333 2.5H4.5C3.39543 2.5 2.5 3.39543 2.5 4.5V5.83333M2.5 14.1667V15.5C2.5 16.6046 3.39543 17.5 4.5 17.5H5.83333M14.1667 17.5H15.5C16.6046 17.5 17.5 16.6046 17.5 15.5V14.1667M17.5 5.83333V4.5C17.5 3.39543 16.6046 2.5 15.5 2.5H14.1667" stroke="#4EE062" stroke-width="2" stroke-linecap="round" stroke-linejoin="round"/>
<path d="M5 7.5L10 5L15 7.5M5 7.5V12.5L10 15M5 7.5L10 10M10 10L15 7.5M10 10V15M15 7.5V12.5L10 15" stroke="#4EE062" stroke-width="2" stroke-linecap="round" stroke-linejoin="round"/>
</svg>
