<svg width="20" height="21" viewBox="0 0 20 21" fill="none" xmlns="http://www.w3.org/2000/svg">
<path d="M7.92356 12L7.34023 8.5H13.8063L12.6396 12H7.92356Z" fill="black"/>
<path fill-rule="evenodd" clip-rule="evenodd" d="M10 20.5C15.5228 20.5 20 16.0228 20 10.5C20 4.97715 15.5228 0.5 10 0.5C4.47715 0.5 0 4.97715 0 10.5C0 16.0228 4.47715 20.5 10 20.5ZM5.5 6C5.22386 6 5 6.22386 5 6.5C5 6.77614 5.22386 7 5.5 7H6.07644L7.0068 12.5822C7.04699 12.8233 7.25558 13 7.5 13H13C13.2152 13 13.4063 12.8623 13.4743 12.6581L14.9743 8.15811C15.0252 8.00564 14.9996 7.83803 14.9056 7.70764C14.8116 7.57726 14.6607 7.5 14.5 7.5H7.17356L6.9932 6.4178C6.95301 6.17671 6.74442 6 6.5 6H5.5ZM8 14C7.44772 14 7 14.4477 7 15C7 15.5523 7.44772 16 8 16C8.55228 16 9 15.5523 9 15C9 14.4477 8.55228 14 8 14ZM13 14C12.4477 14 12 14.4477 12 15C12 15.5523 12.4477 16 13 16C13.5523 16 14 15.5523 14 15C14 14.4477 13.5523 14 13 14Z" fill="black"/>
</svg>
