<svg width="25" height="20" viewBox="0 0 25 20" fill="none" xmlns="http://www.w3.org/2000/svg">
<path d="M24.9999 2.36756C24.0944 2.76913 23.1213 3.04054 22.1 3.1626C23.1425 2.5377 23.943 1.54822 24.32 0.369253C23.3445 0.947799 22.2639 1.368 21.1138 1.59449C20.1928 0.613202 18.8806 0 17.4284 0C14.6399 0 12.3792 2.26062 12.3792 5.04892C12.3792 5.44464 12.4239 5.83001 12.51 6.19953C8.31372 5.98898 4.59337 3.97888 2.10311 0.924214C1.66851 1.66992 1.41952 2.53725 1.41952 3.46254C1.41952 5.2142 2.31096 6.75963 3.66573 7.66503C2.83802 7.63883 2.05954 7.41172 1.37874 7.03355C1.37838 7.05461 1.37838 7.07577 1.37838 7.09701C1.37838 9.54334 3.11879 11.584 5.42856 12.0478C5.00484 12.1632 4.5588 12.2249 4.09827 12.2249C3.77295 12.2249 3.45662 12.1933 3.1484 12.1343C3.79086 14.1403 5.65549 15.6 7.86489 15.6408C6.13691 16.9949 3.95982 17.8021 1.59433 17.8021C1.18682 17.8021 0.784891 17.7783 0.389893 17.7316C2.62432 19.1642 5.27832 20 8.12963 20C17.4166 20 22.4951 12.3064 22.4951 5.6344C22.4951 5.41548 22.4902 5.19772 22.4805 4.98123C23.4669 4.26937 24.323 3.38008 24.9999 2.36756Z" fill="black"/>
</svg>
